# Blender v2.80 (sub 74) OBJ File: 'weights.blend'
# www.blender.org
o body_Cube.010
v -0.016278 -0.000478 0.016278
v -0.016278 0.086324 0.016278
v -0.016278 -0.000478 -0.016278
v -0.016278 0.086324 -0.016278
v 0.016278 -0.000478 0.016278
v 0.016278 0.086324 0.016278
v 0.016278 -0.000478 -0.016278
v 0.016278 0.086324 -0.016278
vt 0.375000 0.000000
vt 0.625000 0.000000
vt 0.625000 0.250000
vt 0.375000 0.250000
vt 0.625000 0.500000
vt 0.375000 0.500000
vt 0.625000 0.750000
vt 0.375000 0.750000
vt 0.625000 1.000000
vt 0.375000 1.000000
vt 0.125000 0.500000
vt 0.125000 0.750000
vt 0.875000 0.500000
vt 0.875000 0.750000
vn -1.0000 0.0000 0.0000
vn 0.0000 0.0000 -1.0000
vn 1.0000 0.0000 0.0000
vn 0.0000 0.0000 1.0000
vn 0.0000 -1.0000 0.0000
vn 0.0000 1.0000 0.0000
s off
f 1/1/1 2/2/1 4/3/1 3/4/1
f 3/4/2 4/3/2 8/5/2 7/6/2
f 7/6/3 8/5/3 6/7/3 5/8/3
f 5/8/4 6/7/4 2/9/4 1/10/4
f 3/11/5 7/6/5 5/8/5 1/12/5
f 8/5/6 4/13/6 2/14/6 6/7/6
o screen1_Cube.016
v 0.016047 0.060882 0.012211
v 0.016047 0.075295 0.012211
v 0.016047 0.060882 -0.012211
v 0.016047 0.075295 -0.012211
v 0.030460 0.075295 0.012211
v 0.030460 0.075295 -0.012211
vt 0.375000 0.000000
vt 0.625000 0.000000
vt 0.625000 0.250000
vt 0.375000 0.250000
vt 0.625000 0.500000
vt 0.625000 0.750000
vt 0.625000 1.000000
vt 0.375000 1.000000
vt 0.875000 0.500000
vt 0.875000 0.750000
vt 0.125000 0.500000
vt 0.125000 0.750000
vn -1.0000 0.0000 0.0000
vn 0.0000 0.0000 -1.0000
vn 0.0000 0.0000 1.0000
vn 0.0000 1.0000 0.0000
vn 0.7071 -0.7071 0.0000
s off
f 9/15/7 10/16/7 12/17/7 11/18/7
f 11/18/8 12/17/8 14/19/8
f 13/20/9 10/21/9 9/22/9
f 14/19/10 12/23/10 10/24/10 13/20/10
f 11/25/11 14/19/11 13/20/11 9/26/11
o screen2_Cube.016
v -0.016047 0.060882 -0.012211
v -0.016047 0.075295 -0.012211
v -0.016047 0.060882 0.012211
v -0.016047 0.075295 0.012211
v -0.030460 0.075295 -0.012211
v -0.030460 0.075295 0.012211
vt 0.375000 0.000000
vt 0.625000 0.000000
vt 0.625000 0.250000
vt 0.375000 0.250000
vt 0.625000 0.500000
vt 0.625000 0.750000
vt 0.625000 1.000000
vt 0.375000 1.000000
vt 0.875000 0.500000
vt 0.875000 0.750000
vt 0.125000 0.500000
vt 0.125000 0.750000
vn 1.0000 0.0000 0.0000
vn 0.0000 0.0000 1.0000
vn -0.0000 0.0000 -1.0000
vn 0.0000 1.0000 0.0000
vn -0.7071 -0.7071 0.0000
s off
f 15/27/12 16/28/12 18/29/12 17/30/12
f 17/30/13 18/29/13 20/31/13
f 19/32/14 16/33/14 15/34/14
f 20/31/15 18/35/15 16/36/15 19/32/15
f 17/37/16 20/31/16 19/32/16 15/38/16
o screen3_Cube.016
v 0.012211 0.060882 -0.016047
v 0.012211 0.075295 -0.016047
v -0.012211 0.060882 -0.016047
v -0.012211 0.075295 -0.016047
v 0.012211 0.075295 -0.030460
v -0.012211 0.075295 -0.030460
vt 0.375000 0.000000
vt 0.625000 0.000000
vt 0.625000 0.250000
vt 0.375000 0.250000
vt 0.625000 0.500000
vt 0.625000 0.750000
vt 0.625000 1.000000
vt 0.375000 1.000000
vt 0.875000 0.500000
vt 0.875000 0.750000
vt 0.125000 0.500000
vt 0.125000 0.750000
vn 0.0000 0.0000 1.0000
vn -1.0000 0.0000 0.0000
vn 1.0000 0.0000 0.0000
vn 0.0000 1.0000 0.0000
vn 0.0000 -0.7071 -0.7071
s off
f 21/39/17 22/40/17 24/41/17 23/42/17
f 23/42/18 24/41/18 26/43/18
f 25/44/19 22/45/19 21/46/19
f 26/43/20 24/47/20 22/48/20 25/44/20
f 23/49/21 26/43/21 25/44/21 21/50/21
o screen4_Cube.016
v -0.012211 0.060882 0.016047
v -0.012211 0.075295 0.016047
v 0.012211 0.060882 0.016047
v 0.012211 0.075295 0.016047
v -0.012211 0.075295 0.030460
v 0.012211 0.075295 0.030460
vt 0.375000 0.000000
vt 0.625000 0.000000
vt 0.625000 0.250000
vt 0.375000 0.250000
vt 0.625000 0.500000
vt 0.625000 0.750000
vt 0.625000 1.000000
vt 0.375000 1.000000
vt 0.875000 0.500000
vt 0.875000 0.750000
vt 0.125000 0.500000
vt 0.125000 0.750000
vn 0.0000 0.0000 -1.0000
vn 1.0000 0.0000 0.0000
vn -1.0000 0.0000 0.0000
vn 0.0000 1.0000 0.0000
vn 0.0000 -0.7071 0.7071
s off
f 27/51/22 28/52/22 30/53/22 29/54/22
f 29/54/23 30/53/23 32/55/23
f 31/56/24 28/57/24 27/58/24
f 32/55/25 30/59/25 28/60/25 31/56/25
f 29/61/26 32/55/26 31/56/26 27/62/26
