# Blender v2.80 (sub 74) OBJ File: 'weights.blend'
# www.blender.org
o plate_Cube.011
v -0.001725 0.107149 0.001438
v -0.016278 0.110600 0.016278
v -0.001725 0.107149 -0.001438
v -0.016278 0.110600 -0.016278
v 0.001725 0.107149 0.001438
v 0.016278 0.110600 0.016278
v 0.001725 0.107149 -0.001438
v 0.016278 0.110600 -0.016278
v -0.016278 0.107149 -0.016278
v -0.016278 0.107149 0.016278
v 0.016278 0.107149 -0.016278
v 0.016278 0.107149 0.016278
v -0.001725 0.078257 -0.001438
v -0.001725 0.078257 0.001438
v 0.001725 0.078257 -0.001438
v 0.001725 0.078257 0.001438
vt 0.375000 0.000000
vt 0.625000 0.000000
vt 0.625000 0.250000
vt 0.375000 0.250000
vt 0.625000 0.500000
vt 0.375000 0.500000
vt 0.625000 0.750000
vt 0.375000 0.750000
vt 0.625000 1.000000
vt 0.375000 1.000000
vt 0.272080 0.647080
vt 0.227920 0.647080
vt 0.227920 0.647080
vt 0.272080 0.647080
vt 0.875000 0.500000
vt 0.875000 0.750000
vt 0.227920 0.602920
vt 0.125000 0.750000
vt 0.125000 0.500000
vt 0.272080 0.602920
vt 0.227920 0.602920
vt 0.272080 0.602920
vn -1.0000 0.0000 0.0000
vn 0.0000 0.0000 -1.0000
vn 1.0000 0.0000 0.0000
vn 0.0000 0.0000 1.0000
vn 0.0000 1.0000 0.0000
vn 0.0000 -1.0000 0.0000
s off
f 10/1/1 2/2/1 4/3/1 9/4/1
f 9/4/2 4/3/2 8/5/2 11/6/2
f 11/6/3 8/5/3 6/7/3 12/8/3
f 12/8/4 6/7/4 2/9/4 10/10/4
f 5/11/4 1/12/4 14/13/4 16/14/4
f 8/5/5 4/15/5 2/16/5 6/7/5
f 3/17/6 1/12/6 10/18/6 9/19/6
f 7/20/6 3/17/6 9/19/6 11/6/6
f 5/11/6 7/20/6 11/6/6 12/8/6
f 1/12/6 5/11/6 12/8/6 10/18/6
f 13/21/6 15/22/6 16/14/6 14/13/6
f 3/17/2 7/20/2 15/22/2 13/21/2
f 7/20/3 5/11/3 16/14/3 15/22/3
f 1/12/1 3/17/1 13/21/1 14/13/1
