# OBJ written from G:\Uni\project_change\shop_blockout.obj
# Units	meters

o shop_blockout
v -2.0225 -4.5025 -2.0225
v 2.0225 -4.5025 -2.0225
v 2.0225 -4.5025 2.0225
v -2.0225 -4.5025 2.0225
v -2.0225 0.0225 -2.0225
v 2.0225 0.0225 -2.0225
v 2.0225 0.0225 2.0225
v -2.0225 0.0225 2.0225
v 1.39872 1.04723 -2.16938
v 2.18383 1.04723 -2.16938
v 2.18383 1.04723 -1.53062
v 1.39872 1.04723 -1.53062
v 1.39872 1.68734 -2.16938
v 2.18383 1.68734 -2.16938
v 2.18383 1.68734 -1.53062
v 1.39872 1.68734 -1.53062
v -2.17492 1.04723 -2.16938
v -1.38981 1.04723 -2.16938
v -1.38981 1.04723 -1.53062
v -2.17492 1.04723 -1.53062
v -2.17492 1.68734 -2.16938
v -1.38981 1.68734 -2.16938
v -1.38981 1.68734 -1.53062
v -2.17492 1.68734 -1.53062
v 1.39872 1.04723 1.52062
v 2.18383 1.04723 1.52062
v 2.18383 1.04723 2.15938
v 1.39872 1.04723 2.15938
v 1.39872 1.68734 1.52062
v 2.18383 1.68734 1.52062
v 2.18383 1.68734 2.15938
v 1.39872 1.68734 2.15938
v -2.17492 1.04723 1.52062
v -1.38981 1.04723 1.52062
v -1.38981 1.04723 2.15938
v -2.17492 1.04723 2.15938
v -2.17492 1.68734 1.52062
v -1.38981 1.68734 1.52062
v -1.38981 1.68734 2.15938
v -2.17492 1.68734 2.15938
v -2.19475 0.00581125 -2.19475
v 2.19475 0.00581125 -2.19475
v 2.19475 0.00581125 2.19475
v -2.19475 0.00581125 2.19475
v -2.19475 1.16796 -2.19475
v 2.19475 1.16796 -2.19475
v 2.19475 1.16796 2.19475
v -2.19475 1.16796 2.19475
v -1.31906 0.00581125 -1.44295
v -1.31906 0.00581125 1.38295
v 1.31906 0.00581125 1.38295
v 1.31906 0.00581125 -1.44295
v -1.31906 1.16796 -1.44295
v -1.31906 1.16796 1.38295
v 1.31906 1.16796 1.38295
v 1.31906 1.16796 -1.44295
vn 0 -1 0
vn 0 0 -1
vn 1 0 0
vn 0 0 1
vn -1 0 0
vn 0 1 0
vt 0.25 0
vt 0.5 0
vt 0.5 0.333333
vt 0.25 0.333333
vt 1 0.666667
vt 0.75 0.666667
vt 0.75 0.333333
vt 1 0.333333
vt 0.5 0.666667
vt 0.25 0.666667
vt 0 0.666667
vt 0 0.333333
vt 0.25 1
vt 0.5 1
vt 0.446225 0.0716999
vt 0.303775 0.0716999
vt 0.303775 0.261633
vt 0.446225 0.261633
vt 0.446225 0.9283
vt 0.446225 0.738367
vt 0.303775 0.738367
vt 0.303775 0.9283
mtllib shop_blockout.mtl
usemtl Default
g Default
f 1/1/1 2/2/1 3/3/1 4/4/1
f 5/5/2 6/6/2 2/7/2 1/8/2
f 6/6/3 7/9/3 3/3/3 2/7/3
f 7/9/4 8/10/4 4/4/4 3/3/4
f 8/10/5 5/11/5 1/12/5 4/4/5
f 5/13/6 8/10/6 7/9/6 6/14/6
f 9/1/1 10/2/1 11/3/1 12/4/1
f 13/5/2 14/6/2 10/7/2 9/8/2
f 14/6/3 15/9/3 11/3/3 10/7/3
f 15/9/4 16/10/4 12/4/4 11/3/4
f 16/10/5 13/11/5 9/12/5 12/4/5
f 13/13/6 16/10/6 15/9/6 14/14/6
f 17/1/1 18/2/1 19/3/1 20/4/1
f 21/5/2 22/6/2 18/7/2 17/8/2
f 22/6/3 23/9/3 19/3/3 18/7/3
f 23/9/4 24/10/4 20/4/4 19/3/4
f 24/10/5 21/11/5 17/12/5 20/4/5
f 21/13/6 24/10/6 23/9/6 22/14/6
f 25/1/1 26/2/1 27/3/1 28/4/1
f 29/5/2 30/6/2 26/7/2 25/8/2
f 30/6/3 31/9/3 27/3/3 26/7/3
f 31/9/4 32/10/4 28/4/4 27/3/4
f 32/10/5 29/11/5 25/12/5 28/4/5
f 29/13/6 32/10/6 31/9/6 30/14/6
f 33/1/1 34/2/1 35/3/1 36/4/1
f 37/5/2 38/6/2 34/7/2 33/8/2
f 38/6/3 39/9/3 35/3/3 34/7/3
f 39/9/4 40/10/4 36/4/4 35/3/4
f 40/10/5 37/11/5 33/12/5 36/4/5
f 37/13/6 40/10/6 39/9/6 38/14/6
f 45/5/2 46/6/2 42/7/2 41/8/2
f 46/6/3 47/9/3 43/3/3 42/7/3
f 47/9/4 48/10/4 44/4/4 43/3/4
f 48/10/5 45/11/5 41/12/5 44/4/5
f 44/4/1 41/1/1 42/2/1 52/15/1 49/16/1 50/17/1 51/18/1 52/15/1 42/2/1 43/3/1
f 45/13/6 48/10/6 47/9/6 46/14/6 56/19/6 55/20/6 54/21/6 53/22/6 56/19/6 46/14/6
f 49/16/4 52/15/4 56/19/4 53/22/4
f 52/15/5 51/18/5 55/20/5 56/19/5
f 51/18/2 50/17/2 54/21/2 55/20/2
f 50/17/3 49/16/3 53/22/3 54/21/3
